%TF.GenerationSoftware,KiCad,Pcbnew,9.0.3*%
%TF.CreationDate,2025-09-20T20:18:26+05:30*%
%TF.ProjectId,RFID2,52464944-322e-46b6-9963-61645f706362,rev?*%
%TF.SameCoordinates,Original*%
%TF.FileFunction,Soldermask,Top*%
%TF.FilePolarity,Negative*%
%FSLAX46Y46*%
G04 Gerber Fmt 4.6, Leading zero omitted, Abs format (unit mm)*
G04 Created by KiCad (PCBNEW 9.0.3) date 2025-09-20 20:18:26*
%MOMM*%
%LPD*%
G01*
G04 APERTURE LIST*
G04 Aperture macros list*
%AMRoundRect*
0 Rectangle with rounded corners*
0 $1 Rounding radius*
0 $2 $3 $4 $5 $6 $7 $8 $9 X,Y pos of 4 corners*
0 Add a 4 corners polygon primitive as box body*
4,1,4,$2,$3,$4,$5,$6,$7,$8,$9,$2,$3,0*
0 Add four circle primitives for the rounded corners*
1,1,$1+$1,$2,$3*
1,1,$1+$1,$4,$5*
1,1,$1+$1,$6,$7*
1,1,$1+$1,$8,$9*
0 Add four rect primitives between the rounded corners*
20,1,$1+$1,$2,$3,$4,$5,0*
20,1,$1+$1,$4,$5,$6,$7,0*
20,1,$1+$1,$6,$7,$8,$9,0*
20,1,$1+$1,$8,$9,$2,$3,0*%
G04 Aperture macros list end*
%ADD10O,1.924000X6.824000*%
%ADD11C,3.000000*%
%ADD12RoundRect,0.102000X-1.000000X1.000000X-1.000000X-1.000000X1.000000X-1.000000X1.000000X1.000000X0*%
%ADD13C,2.204000*%
%ADD14O,3.000000X1.500000*%
%ADD15R,1.800000X2.600000*%
%ADD16O,1.800000X2.600000*%
%ADD17C,2.500000*%
%ADD18RoundRect,0.102000X0.862500X0.862500X-0.862500X0.862500X-0.862500X-0.862500X0.862500X-0.862500X0*%
%ADD19C,1.929000*%
%ADD20C,2.370000*%
%ADD21C,1.602000*%
%ADD22C,1.612000*%
%ADD23RoundRect,0.102000X-0.754000X-0.754000X0.754000X-0.754000X0.754000X0.754000X-0.754000X0.754000X0*%
%ADD24C,1.712000*%
%ADD25O,1.804000X3.404000*%
G04 APERTURE END LIST*
D10*
%TO.C,S1*%
X117460000Y-103139437D03*
X124560000Y-103139437D03*
%TD*%
D11*
%TO.C,U3*%
X146535000Y-67359437D03*
X99585000Y-67359437D03*
X146535000Y-91869437D03*
X99585000Y-91869437D03*
D12*
X138575000Y-66939437D03*
D13*
X136035000Y-66939437D03*
X133495000Y-66939437D03*
X130955000Y-66939437D03*
X128415000Y-66939437D03*
X125875000Y-66939437D03*
X123335000Y-66939437D03*
X120795000Y-66939437D03*
X118255000Y-66939437D03*
X115715000Y-66939437D03*
X113175000Y-66939437D03*
X110635000Y-66939437D03*
X108095000Y-66939437D03*
X105555000Y-66939437D03*
X103015000Y-66939437D03*
X103015000Y-92339437D03*
X105555000Y-92339437D03*
X108095000Y-92339437D03*
X110635000Y-92339437D03*
X113175000Y-92339437D03*
X115715000Y-92339437D03*
X118255000Y-92339437D03*
X120795000Y-92339437D03*
X123335000Y-92339437D03*
X125875000Y-92339437D03*
X128415000Y-92339437D03*
X130955000Y-92339437D03*
X133495000Y-92339437D03*
X136035000Y-92339437D03*
X138575000Y-92339437D03*
%TD*%
D14*
%TO.C,U2*%
X165560000Y-75159437D03*
X165560000Y-72619437D03*
X165560000Y-70079437D03*
X165560000Y-67539437D03*
X165560000Y-64999437D03*
X165560000Y-62459437D03*
X165560000Y-59919437D03*
X165560000Y-57379437D03*
X165560000Y-54839437D03*
X165560000Y-52299437D03*
X165560000Y-49759437D03*
X165560000Y-47219437D03*
X165560000Y-44679437D03*
X165560000Y-42139437D03*
%TD*%
D11*
%TO.C,DS1*%
X85060900Y-28781937D03*
X85060900Y-59782637D03*
X160059480Y-59782637D03*
X160060000Y-28781937D03*
D15*
X90560000Y-28781937D03*
D16*
X93100000Y-28781937D03*
X95640000Y-28781937D03*
X98180000Y-28781937D03*
X100720000Y-28781937D03*
X103260000Y-28781937D03*
X105800000Y-28781937D03*
X108340000Y-28781937D03*
X110880000Y-28781937D03*
X113420000Y-28781937D03*
X115960000Y-28781937D03*
X118500000Y-28781937D03*
X121040000Y-28781937D03*
X123580000Y-28781937D03*
X126120000Y-28781937D03*
X128660000Y-28781937D03*
%TD*%
D17*
%TO.C,U1*%
X143300000Y-158281937D03*
X139800000Y-120281937D03*
X111800000Y-120281937D03*
X108300000Y-158281937D03*
D18*
X134250000Y-172041937D03*
D19*
X131710000Y-172041937D03*
X129170000Y-172041937D03*
X126630000Y-172041937D03*
X124090000Y-172041937D03*
X121550000Y-172041937D03*
X119010000Y-172041937D03*
X116470000Y-172041937D03*
%TD*%
D20*
%TO.C,BT2*%
X125300000Y-152781937D03*
X125300000Y-122781937D03*
D21*
X94000000Y-123981937D03*
X94000000Y-136781937D03*
%TD*%
D22*
%TO.C,LS1*%
X163600000Y-94781937D03*
X156000000Y-94781937D03*
%TD*%
D23*
%TO.C,R1*%
X79300000Y-92281937D03*
D24*
X79300000Y-94781937D03*
X79300000Y-97281937D03*
D25*
X86800000Y-89981937D03*
X86800000Y-99581937D03*
%TD*%
M02*
