%TF.GenerationSoftware,KiCad,Pcbnew,9.0.3*%
%TF.CreationDate,2025-09-20T20:11:44+05:30*%
%TF.ProjectId,RFID2,52464944-322e-46b6-9963-61645f706362,rev?*%
%TF.SameCoordinates,Original*%
%TF.FileFunction,Plated,1,2,PTH,Mixed*%
%TF.FilePolarity,Positive*%
%FSLAX46Y46*%
G04 Gerber Fmt 4.6, Leading zero omitted, Abs format (unit mm)*
G04 Created by KiCad (PCBNEW 9.0.3) date 2025-09-20 20:11:44*
%MOMM*%
%LPD*%
G01*
G04 APERTURE LIST*
%TA.AperFunction,ComponentDrill*%
%ADD10C,0.800000*%
%TD*%
%TA.AperFunction,ComponentDrill*%
%ADD11C,0.890000*%
%TD*%
%TA.AperFunction,ComponentDrill*%
%ADD12C,0.900000*%
%TD*%
G04 aperture for slot hole*
%TA.AperFunction,ComponentDrill*%
%ADD13C,0.980000*%
%TD*%
%TA.AperFunction,ComponentDrill*%
%ADD14C,1.000000*%
%TD*%
%TA.AperFunction,ComponentDrill*%
%ADD15C,1.020000*%
%TD*%
G04 aperture for slot hole*
%TA.AperFunction,ComponentDrill*%
%ADD16C,1.100000*%
%TD*%
%TA.AperFunction,ComponentDrill*%
%ADD17C,1.150000*%
%TD*%
%TA.AperFunction,ComponentDrill*%
%ADD18C,1.200000*%
%TD*%
%TA.AperFunction,ComponentDrill*%
%ADD19C,2.500000*%
%TD*%
G04 APERTURE END LIST*
D10*
%TO.C,U2*%
X165560000Y-42139437D03*
X165560000Y-44679437D03*
X165560000Y-47219437D03*
X165560000Y-49759437D03*
X165560000Y-52299437D03*
X165560000Y-54839437D03*
X165560000Y-57379437D03*
X165560000Y-59919437D03*
X165560000Y-62459437D03*
X165560000Y-64999437D03*
X165560000Y-67539437D03*
X165560000Y-70079437D03*
X165560000Y-72619437D03*
X165560000Y-75159437D03*
D11*
%TO.C,BT2*%
X94000000Y-123981937D03*
X94000000Y-136781937D03*
D12*
%TO.C,LS1*%
X156000000Y-94781937D03*
X163600000Y-94781937D03*
D13*
%TO.C,S1*%
X117460000Y-105589437D02*
X117460000Y-100689437D01*
X124560000Y-105589437D02*
X124560000Y-100689437D01*
D14*
%TO.C,R1*%
X79300000Y-92281937D03*
X79300000Y-94781937D03*
X79300000Y-97281937D03*
D15*
%TO.C,U3*%
X103015000Y-66939437D03*
X103015000Y-92339437D03*
X105555000Y-66939437D03*
X105555000Y-92339437D03*
X108095000Y-66939437D03*
X108095000Y-92339437D03*
X110635000Y-66939437D03*
X110635000Y-92339437D03*
X113175000Y-66939437D03*
X113175000Y-92339437D03*
X115715000Y-66939437D03*
X115715000Y-92339437D03*
X118255000Y-66939437D03*
X118255000Y-92339437D03*
X120795000Y-66939437D03*
X120795000Y-92339437D03*
X123335000Y-66939437D03*
X123335000Y-92339437D03*
X125875000Y-66939437D03*
X125875000Y-92339437D03*
X128415000Y-66939437D03*
X128415000Y-92339437D03*
X130955000Y-66939437D03*
X130955000Y-92339437D03*
X133495000Y-66939437D03*
X133495000Y-92339437D03*
X136035000Y-66939437D03*
X136035000Y-92339437D03*
X138575000Y-66939437D03*
X138575000Y-92339437D03*
D16*
%TO.C,R1*%
X86800000Y-90331937D02*
X86800000Y-89631937D01*
X86800000Y-99931937D02*
X86800000Y-99231937D01*
D17*
%TO.C,U1*%
X116470000Y-172041937D03*
X119010000Y-172041937D03*
X121550000Y-172041937D03*
X124090000Y-172041937D03*
X126630000Y-172041937D03*
X129170000Y-172041937D03*
X131710000Y-172041937D03*
X134250000Y-172041937D03*
D18*
%TO.C,DS1*%
X90560000Y-28781937D03*
X93100000Y-28781937D03*
X95640000Y-28781937D03*
X98180000Y-28781937D03*
X100720000Y-28781937D03*
X103260000Y-28781937D03*
X105800000Y-28781937D03*
X108340000Y-28781937D03*
X110880000Y-28781937D03*
X113420000Y-28781937D03*
X115960000Y-28781937D03*
X118500000Y-28781937D03*
X121040000Y-28781937D03*
X123580000Y-28781937D03*
X126120000Y-28781937D03*
X128660000Y-28781937D03*
D19*
X85060900Y-28781937D03*
X85060900Y-59782637D03*
X160059480Y-59782637D03*
X160060000Y-28781937D03*
M02*
