%TF.GenerationSoftware,KiCad,Pcbnew,9.0.3*%
%TF.CreationDate,2025-09-20T20:18:25+05:30*%
%TF.ProjectId,RFID2,52464944-322e-46b6-9963-61645f706362,rev?*%
%TF.SameCoordinates,Original*%
%TF.FileFunction,Copper,L1,Top*%
%TF.FilePolarity,Positive*%
%FSLAX46Y46*%
G04 Gerber Fmt 4.6, Leading zero omitted, Abs format (unit mm)*
G04 Created by KiCad (PCBNEW 9.0.3) date 2025-09-20 20:18:25*
%MOMM*%
%LPD*%
G01*
G04 APERTURE LIST*
%TA.AperFunction,ComponentPad*%
%ADD10O,1.720000X6.620000*%
%TD*%
%TA.AperFunction,ComponentPad*%
%ADD11R,2.000000X2.000000*%
%TD*%
%TA.AperFunction,ComponentPad*%
%ADD12C,2.000000*%
%TD*%
%TA.AperFunction,ComponentPad*%
%ADD13O,3.000000X1.500000*%
%TD*%
%TA.AperFunction,ComponentPad*%
%ADD14C,3.000000*%
%TD*%
%TA.AperFunction,ComponentPad*%
%ADD15R,1.800000X2.600000*%
%TD*%
%TA.AperFunction,ComponentPad*%
%ADD16O,1.800000X2.600000*%
%TD*%
%TA.AperFunction,ComponentPad*%
%ADD17R,1.725000X1.725000*%
%TD*%
%TA.AperFunction,ComponentPad*%
%ADD18C,1.725000*%
%TD*%
%TA.AperFunction,ComponentPad*%
%ADD19C,1.398000*%
%TD*%
%TA.AperFunction,ComponentPad*%
%ADD20C,1.408000*%
%TD*%
%TA.AperFunction,ComponentPad*%
%ADD21R,1.508000X1.508000*%
%TD*%
%TA.AperFunction,ComponentPad*%
%ADD22C,1.508000*%
%TD*%
%TA.AperFunction,ComponentPad*%
%ADD23O,1.600000X3.200000*%
%TD*%
%TA.AperFunction,Conductor*%
%ADD24C,1.000000*%
%TD*%
%TA.AperFunction,Conductor*%
%ADD25C,0.250000*%
%TD*%
G04 APERTURE END LIST*
D10*
%TO.P,S1,1*%
%TO.N,Net-(DS1-VIN)*%
X117460000Y-103139437D03*
%TO.P,S1,2*%
%TO.N,Net-(BT2-Pad+)*%
X124560000Y-103139437D03*
%TD*%
D11*
%TO.P,U3,1,3V3*%
%TO.N,Net-(U1-VCC)*%
X138575000Y-66939437D03*
D12*
%TO.P,U3,2,GND*%
%TO.N,GND*%
X136035000Y-66939437D03*
%TO.P,U3,3,D15*%
%TO.N,Net-(U3-D15)*%
X133495000Y-66939437D03*
%TO.P,U3,4,D2*%
%TO.N,Net-(DS1-D7)*%
X130955000Y-66939437D03*
%TO.P,U3,5,D4*%
%TO.N,Net-(DS1-D6)*%
X128415000Y-66939437D03*
%TO.P,U3,6,RX2*%
%TO.N,unconnected-(U3-RX2-Pad6)*%
X125875000Y-66939437D03*
%TO.P,U3,7,TX2*%
%TO.N,unconnected-(U3-TX2-Pad7)*%
X123335000Y-66939437D03*
%TO.P,U3,8,D5*%
%TO.N,Net-(U2-CS)*%
X120795000Y-66939437D03*
%TO.P,U3,9,D18*%
%TO.N,Net-(U1-SCK)*%
X118255000Y-66939437D03*
%TO.P,U3,10,D19*%
%TO.N,Net-(U1-MISO{slash}SCL{slash}TX)*%
X115715000Y-66939437D03*
%TO.P,U3,11,D21*%
%TO.N,Net-(U2-DC)*%
X113175000Y-66939437D03*
%TO.P,U3,12,RX0*%
%TO.N,unconnected-(U3-RX0-Pad12)*%
X110635000Y-66939437D03*
%TO.P,U3,13,TX0*%
%TO.N,unconnected-(U3-TX0-Pad13)*%
X108095000Y-66939437D03*
%TO.P,U3,14,D22*%
%TO.N,Net-(U2-RST)*%
X105555000Y-66939437D03*
%TO.P,U3,15,D23*%
%TO.N,Net-(U1-MOSI)*%
X103015000Y-66939437D03*
%TO.P,U3,16,EN*%
%TO.N,unconnected-(U3-EN-Pad16)*%
X103015000Y-92339437D03*
%TO.P,U3,17,VP*%
%TO.N,unconnected-(U3-VP-Pad17)*%
X105555000Y-92339437D03*
%TO.P,U3,18,VN*%
%TO.N,unconnected-(U3-VN-Pad18)*%
X108095000Y-92339437D03*
%TO.P,U3,19,D34*%
%TO.N,unconnected-(U3-D34-Pad19)*%
X110635000Y-92339437D03*
%TO.P,U3,20,D35*%
%TO.N,unconnected-(U3-D35-Pad20)*%
X113175000Y-92339437D03*
%TO.P,U3,21,D32*%
%TO.N,Net-(DS1-RS)*%
X115715000Y-92339437D03*
%TO.P,U3,22,D33*%
%TO.N,Net-(DS1-E)*%
X118255000Y-92339437D03*
%TO.P,U3,23,D25*%
%TO.N,Net-(DS1-D5)*%
X120795000Y-92339437D03*
%TO.P,U3,24,D26*%
%TO.N,Net-(DS1-D4)*%
X123335000Y-92339437D03*
%TO.P,U3,25,D27*%
%TO.N,Net-(U1-RST)*%
X125875000Y-92339437D03*
%TO.P,U3,26,D14*%
%TO.N,Net-(U1-SS{slash}SDA{slash}RX)*%
X128415000Y-92339437D03*
%TO.P,U3,27,D12*%
%TO.N,unconnected-(U3-D12-Pad27)*%
X130955000Y-92339437D03*
%TO.P,U3,28,D13*%
%TO.N,unconnected-(U3-D13-Pad28)*%
X133495000Y-92339437D03*
%TO.P,U3,29,GND*%
%TO.N,GND*%
X136035000Y-92339437D03*
%TO.P,U3,30,VIN*%
%TO.N,Net-(DS1-VIN)*%
X138575000Y-92339437D03*
%TD*%
D13*
%TO.P,U2,1,VCC*%
%TO.N,Net-(U1-VCC)*%
X165560000Y-75159437D03*
%TO.P,U2,2,GND*%
%TO.N,GND*%
X165560000Y-72619437D03*
%TO.P,U2,3,CS*%
%TO.N,Net-(U2-CS)*%
X165560000Y-70079437D03*
%TO.P,U2,4,RST*%
%TO.N,Net-(U2-RST)*%
X165560000Y-67539437D03*
%TO.P,U2,5,DC*%
%TO.N,Net-(U2-DC)*%
X165560000Y-64999437D03*
%TO.P,U2,6,MOSI*%
%TO.N,Net-(U1-MOSI)*%
X165560000Y-62459437D03*
%TO.P,U2,7,SCK*%
%TO.N,Net-(U1-SCK)*%
X165560000Y-59919437D03*
%TO.P,U2,8,LED*%
%TO.N,Net-(U1-VCC)*%
X165560000Y-57379437D03*
%TO.P,U2,9,MISO*%
%TO.N,Net-(U1-MISO{slash}SCL{slash}TX)*%
X165560000Y-54839437D03*
%TO.P,U2,10*%
%TO.N,unconnected-(U2-Pad10)*%
X165560000Y-52299437D03*
%TO.P,U2,11*%
%TO.N,unconnected-(U2-Pad11)*%
X165560000Y-49759437D03*
%TO.P,U2,12*%
%TO.N,unconnected-(U2-Pad12)*%
X165560000Y-47219437D03*
%TO.P,U2,13*%
%TO.N,unconnected-(U2-Pad13)*%
X165560000Y-44679437D03*
%TO.P,U2,14*%
%TO.N,unconnected-(U2-Pad14)*%
X165560000Y-42139437D03*
%TD*%
D14*
%TO.P,DS1,*%
%TO.N,*%
X85060900Y-28781937D03*
X85060900Y-59782637D03*
X160059480Y-59782637D03*
X160060000Y-28781937D03*
D15*
%TO.P,DS1,1,GND*%
%TO.N,GND*%
X90560000Y-28781937D03*
D16*
%TO.P,DS1,2,VIN*%
%TO.N,Net-(DS1-VIN)*%
X93100000Y-28781937D03*
%TO.P,DS1,3,VO*%
%TO.N,Net-(DS1-VO)*%
X95640000Y-28781937D03*
%TO.P,DS1,4,RS*%
%TO.N,Net-(DS1-RS)*%
X98180000Y-28781937D03*
%TO.P,DS1,5,GND*%
%TO.N,GND*%
X100720000Y-28781937D03*
%TO.P,DS1,6,E*%
%TO.N,Net-(DS1-E)*%
X103260000Y-28781937D03*
%TO.P,DS1,7,D0*%
%TO.N,unconnected-(DS1-D0-Pad7)*%
X105800000Y-28781937D03*
%TO.P,DS1,8,D1*%
%TO.N,unconnected-(DS1-D1-Pad8)*%
X108340000Y-28781937D03*
%TO.P,DS1,9,D2*%
%TO.N,unconnected-(DS1-D2-Pad9)*%
X110880000Y-28781937D03*
%TO.P,DS1,10,D3*%
%TO.N,unconnected-(DS1-D3-Pad10)*%
X113420000Y-28781937D03*
%TO.P,DS1,11,D4*%
%TO.N,Net-(DS1-D4)*%
X115960000Y-28781937D03*
%TO.P,DS1,12,D5*%
%TO.N,Net-(DS1-D5)*%
X118500000Y-28781937D03*
%TO.P,DS1,13,D6*%
%TO.N,Net-(DS1-D6)*%
X121040000Y-28781937D03*
%TO.P,DS1,14,D7*%
%TO.N,Net-(DS1-D7)*%
X123580000Y-28781937D03*
%TO.P,DS1,15,LED(+)*%
%TO.N,unconnected-(DS1-LED(+)-Pad15)*%
X126120000Y-28781937D03*
%TO.P,DS1,16,LED(-)*%
%TO.N,unconnected-(DS1-LED(-)-Pad16)*%
X128660000Y-28781937D03*
%TD*%
D17*
%TO.P,U1,1,VCC*%
%TO.N,Net-(U1-VCC)*%
X134250000Y-172041937D03*
D18*
%TO.P,U1,2,RST*%
%TO.N,Net-(U1-RST)*%
X131710000Y-172041937D03*
%TO.P,U1,3,GND*%
%TO.N,GND*%
X129170000Y-172041937D03*
%TO.P,U1,4,IRQ*%
%TO.N,unconnected-(U1-IRQ-Pad4)*%
X126630000Y-172041937D03*
%TO.P,U1,5,MISO/SCL/TX*%
%TO.N,Net-(U1-MISO{slash}SCL{slash}TX)*%
X124090000Y-172041937D03*
%TO.P,U1,6,MOSI*%
%TO.N,Net-(U1-MOSI)*%
X121550000Y-172041937D03*
%TO.P,U1,7,SCK*%
%TO.N,Net-(U1-SCK)*%
X119010000Y-172041937D03*
%TO.P,U1,8,SS/SDA/RX*%
%TO.N,Net-(U1-SS{slash}SDA{slash}RX)*%
X116470000Y-172041937D03*
%TD*%
D19*
%TO.P,BT2,+*%
%TO.N,Net-(BT2-Pad+)*%
X94000000Y-123981937D03*
%TO.P,BT2,-*%
%TO.N,GND*%
X94000000Y-136781937D03*
%TD*%
D20*
%TO.P,LS1,N*%
%TO.N,GND*%
X163600000Y-94781937D03*
%TO.P,LS1,P*%
%TO.N,Net-(U3-D15)*%
X156000000Y-94781937D03*
%TD*%
D21*
%TO.P,R1,1*%
%TO.N,GND*%
X79300000Y-92281937D03*
D22*
%TO.P,R1,2*%
%TO.N,Net-(DS1-VO)*%
X79300000Y-94781937D03*
%TO.P,R1,3*%
%TO.N,Net-(DS1-VIN)*%
X79300000Y-97281937D03*
D23*
%TO.P,R1,SH1*%
%TO.N,N/C*%
X86800000Y-89981937D03*
%TO.P,R1,SH2*%
X86800000Y-99581937D03*
%TD*%
D24*
%TO.N,Net-(BT2-Pad+)*%
X94000000Y-123981937D02*
X103717500Y-123981937D01*
X103717500Y-123981937D02*
X124560000Y-103139437D01*
D25*
%TO.N,Net-(DS1-RS)*%
X94800000Y-93781937D02*
X97800000Y-96781937D01*
X98180000Y-28781937D02*
X94800000Y-32161937D01*
X111272500Y-96781937D02*
X115715000Y-92339437D01*
X97800000Y-96781937D02*
X111272500Y-96781937D01*
X94800000Y-32161937D02*
X94800000Y-93781937D01*
D24*
%TO.N,Net-(DS1-VIN)*%
X84300000Y-102281937D02*
X79300000Y-97281937D01*
X117460000Y-103139437D02*
X121471000Y-99128437D01*
X90800000Y-24281937D02*
X93100000Y-26581937D01*
X138575000Y-92506937D02*
X133800000Y-97281937D01*
D25*
X84800000Y-102281937D02*
X84300000Y-102281937D01*
D24*
X81800000Y-24281937D02*
X90800000Y-24281937D01*
X84800000Y-93281937D02*
X84800000Y-102281937D01*
X121471000Y-99128437D02*
X136728500Y-99128437D01*
X78800000Y-87281937D02*
X84800000Y-93281937D01*
X78800000Y-87281937D02*
X78800000Y-27281937D01*
X133800000Y-97281937D02*
X117800000Y-97281937D01*
X138575000Y-97281937D02*
X138575000Y-92339437D01*
X112800000Y-102281937D02*
X84800000Y-102281937D01*
X117800000Y-97281937D02*
X112800000Y-102281937D01*
X78800000Y-27281937D02*
X81800000Y-24281937D01*
D25*
X138575000Y-92339437D02*
X138575000Y-92506937D01*
D24*
X93100000Y-26581937D02*
X93100000Y-28781937D01*
X136728500Y-99128437D02*
X138575000Y-97281937D01*
D25*
%TO.N,Net-(DS1-D5)*%
X120795000Y-92339437D02*
X120795000Y-93286937D01*
%TO.N,Net-(DS1-D7)*%
X123580000Y-28781937D02*
X123580000Y-59564437D01*
X123580000Y-59564437D02*
X130955000Y-66939437D01*
%TO.N,Net-(DS1-E)*%
X97300000Y-89781937D02*
X96300000Y-88781937D01*
X115697500Y-89781937D02*
X97300000Y-89781937D01*
X118255000Y-92339437D02*
X115697500Y-89781937D01*
X96300000Y-88781937D02*
X96300000Y-35741937D01*
X96300000Y-35741937D02*
X103260000Y-28781937D01*
%TO.N,Net-(DS1-VO)*%
X79800000Y-22281937D02*
X91800000Y-22281937D01*
X95640000Y-26441937D02*
X95640000Y-28781937D01*
X75800000Y-26281937D02*
X79800000Y-22281937D01*
X91800000Y-22281937D02*
X95800000Y-26281937D01*
X75800000Y-91281937D02*
X75800000Y-26281937D01*
X79300000Y-94781937D02*
X75800000Y-91281937D01*
X95800000Y-26281937D02*
X95640000Y-26441937D01*
%TO.N,Net-(DS1-D6)*%
X121040000Y-28781937D02*
X121040000Y-59564437D01*
X121040000Y-59564437D02*
X128415000Y-66939437D01*
%TO.N,Net-(U3-D15)*%
X156000000Y-89500000D02*
X156000000Y-94781937D01*
X133433635Y-66933635D02*
X156000000Y-89500000D01*
X133489198Y-66933635D02*
X133433635Y-66933635D01*
X133495000Y-66939437D02*
X133489198Y-66933635D01*
%TO.N,Net-(U1-SCK)*%
X166437500Y-59919437D02*
X165560000Y-59919437D01*
%TO.N,Net-(U1-RST)*%
X131710000Y-171245937D02*
X131710000Y-172041937D01*
%TO.N,Net-(U1-MISO{slash}SCL{slash}TX)*%
X116300000Y-174781937D02*
X120800000Y-174781937D01*
X124090000Y-172041937D02*
X121350000Y-174781937D01*
X143300000Y-92281937D02*
X143300000Y-97281937D01*
X112300000Y-128281937D02*
X112300000Y-170781937D01*
X172300000Y-153281937D02*
X172300000Y-61579437D01*
X139800000Y-88781937D02*
X143300000Y-92281937D01*
X172300000Y-61579437D02*
X165560000Y-54839437D01*
X150800000Y-174781937D02*
X172300000Y-153281937D01*
X122300000Y-174781937D02*
X150800000Y-174781937D01*
X121350000Y-174781937D02*
X120800000Y-174781937D01*
X143300000Y-97281937D02*
X112300000Y-128281937D01*
X112300000Y-170781937D02*
X116300000Y-174781937D01*
X137557500Y-88781937D02*
X139800000Y-88781937D01*
X115715000Y-66939437D02*
X137557500Y-88781937D01*
X120800000Y-174781937D02*
X122300000Y-174781937D01*
D24*
%TO.N,Net-(U1-VCC)*%
X155300000Y-83781937D02*
X164300000Y-83781937D01*
X153800000Y-70281937D02*
X158677500Y-75159437D01*
X148040000Y-172041937D02*
X157550000Y-162531937D01*
X141917500Y-70281937D02*
X141917500Y-70399437D01*
X141917500Y-70399437D02*
X155300000Y-83781937D01*
X148135000Y-57379437D02*
X165560000Y-57379437D01*
X134250000Y-172041937D02*
X148040000Y-172041937D01*
X169300000Y-150781937D02*
X169300000Y-104281937D01*
X141917500Y-70281937D02*
X153800000Y-70281937D01*
X138575000Y-66939437D02*
X148135000Y-57379437D01*
X157550000Y-162531937D02*
X158800000Y-161281937D01*
X158677500Y-75159437D02*
X165560000Y-75159437D01*
X164300000Y-83781937D02*
X169300000Y-88781937D01*
X138575000Y-66939437D02*
X141917500Y-70281937D01*
X169300000Y-88781937D02*
X169300000Y-104281937D01*
X157550000Y-162531937D02*
X169300000Y-150781937D01*
%TD*%
M02*
