%TF.GenerationSoftware,KiCad,Pcbnew,9.0.3*%
%TF.CreationDate,2025-09-20T20:18:25+05:30*%
%TF.ProjectId,RFID2,52464944-322e-46b6-9963-61645f706362,rev?*%
%TF.SameCoordinates,Original*%
%TF.FileFunction,Legend,Top*%
%TF.FilePolarity,Positive*%
%FSLAX46Y46*%
G04 Gerber Fmt 4.6, Leading zero omitted, Abs format (unit mm)*
G04 Created by KiCad (PCBNEW 9.0.3) date 2025-09-20 20:18:25*
%MOMM*%
%LPD*%
G01*
G04 APERTURE LIST*
%ADD10C,0.100000*%
%ADD11C,0.500000*%
%ADD12C,0.300000*%
%ADD13C,0.150000*%
%ADD14C,0.127000*%
%ADD15C,0.200000*%
%ADD16C,0.120000*%
G04 APERTURE END LIST*
D10*
D11*
X87819423Y-175144032D02*
X87819423Y-170144032D01*
X90676566Y-175144032D02*
X88533708Y-172286889D01*
X90676566Y-170144032D02*
X87819423Y-173001175D01*
X92581327Y-174905937D02*
X93295613Y-175144032D01*
X93295613Y-175144032D02*
X94486089Y-175144032D01*
X94486089Y-175144032D02*
X94962280Y-174905937D01*
X94962280Y-174905937D02*
X95200375Y-174667841D01*
X95200375Y-174667841D02*
X95438470Y-174191651D01*
X95438470Y-174191651D02*
X95438470Y-173715460D01*
X95438470Y-173715460D02*
X95200375Y-173239270D01*
X95200375Y-173239270D02*
X94962280Y-173001175D01*
X94962280Y-173001175D02*
X94486089Y-172763079D01*
X94486089Y-172763079D02*
X93533708Y-172524984D01*
X93533708Y-172524984D02*
X93057518Y-172286889D01*
X93057518Y-172286889D02*
X92819423Y-172048794D01*
X92819423Y-172048794D02*
X92581327Y-171572603D01*
X92581327Y-171572603D02*
X92581327Y-171096413D01*
X92581327Y-171096413D02*
X92819423Y-170620222D01*
X92819423Y-170620222D02*
X93057518Y-170382127D01*
X93057518Y-170382127D02*
X93533708Y-170144032D01*
X93533708Y-170144032D02*
X94724185Y-170144032D01*
X94724185Y-170144032D02*
X95438470Y-170382127D01*
X82937904Y-126087074D02*
X82937904Y-132277550D01*
X86509333Y-126563264D02*
X86509333Y-131801360D01*
X87937904Y-126563264D02*
X86509333Y-126563264D01*
X85080761Y-126801360D02*
X85080761Y-131563264D01*
X88652190Y-129182312D02*
X86509333Y-129182312D01*
X87937904Y-131801360D02*
X86509333Y-131801360D01*
D12*
X77539885Y-107550733D02*
X77539885Y-108979305D01*
X76682742Y-107265019D02*
X79682742Y-108265019D01*
X79682742Y-108265019D02*
X76682742Y-109265019D01*
X76682742Y-112550733D02*
X79682742Y-112550733D01*
X76682742Y-114265019D02*
X78397028Y-112979305D01*
X79682742Y-114265019D02*
X77968457Y-112550733D01*
X78682742Y-116836448D02*
X76682742Y-116836448D01*
X78682742Y-115550733D02*
X77111314Y-115550733D01*
X77111314Y-115550733D02*
X76825600Y-115693590D01*
X76825600Y-115693590D02*
X76682742Y-115979305D01*
X76682742Y-115979305D02*
X76682742Y-116407876D01*
X76682742Y-116407876D02*
X76825600Y-116693590D01*
X76825600Y-116693590D02*
X76968457Y-116836448D01*
X76825600Y-118122162D02*
X76682742Y-118407876D01*
X76682742Y-118407876D02*
X76682742Y-118979305D01*
X76682742Y-118979305D02*
X76825600Y-119265019D01*
X76825600Y-119265019D02*
X77111314Y-119407876D01*
X77111314Y-119407876D02*
X77254171Y-119407876D01*
X77254171Y-119407876D02*
X77539885Y-119265019D01*
X77539885Y-119265019D02*
X77682742Y-118979305D01*
X77682742Y-118979305D02*
X77682742Y-118550734D01*
X77682742Y-118550734D02*
X77825600Y-118265019D01*
X77825600Y-118265019D02*
X78111314Y-118122162D01*
X78111314Y-118122162D02*
X78254171Y-118122162D01*
X78254171Y-118122162D02*
X78539885Y-118265019D01*
X78539885Y-118265019D02*
X78682742Y-118550734D01*
X78682742Y-118550734D02*
X78682742Y-118979305D01*
X78682742Y-118979305D02*
X78539885Y-119265019D01*
X76682742Y-120693590D02*
X79682742Y-120693590D01*
X76682742Y-121979305D02*
X78254171Y-121979305D01*
X78254171Y-121979305D02*
X78539885Y-121836447D01*
X78539885Y-121836447D02*
X78682742Y-121550733D01*
X78682742Y-121550733D02*
X78682742Y-121122162D01*
X78682742Y-121122162D02*
X78539885Y-120836447D01*
X78539885Y-120836447D02*
X78397028Y-120693590D01*
X76682742Y-124693591D02*
X78254171Y-124693591D01*
X78254171Y-124693591D02*
X78539885Y-124550733D01*
X78539885Y-124550733D02*
X78682742Y-124265019D01*
X78682742Y-124265019D02*
X78682742Y-123693591D01*
X78682742Y-123693591D02*
X78539885Y-123407876D01*
X76825600Y-124693591D02*
X76682742Y-124407876D01*
X76682742Y-124407876D02*
X76682742Y-123693591D01*
X76682742Y-123693591D02*
X76825600Y-123407876D01*
X76825600Y-123407876D02*
X77111314Y-123265019D01*
X77111314Y-123265019D02*
X77397028Y-123265019D01*
X77397028Y-123265019D02*
X77682742Y-123407876D01*
X77682742Y-123407876D02*
X77825600Y-123693591D01*
X77825600Y-123693591D02*
X77825600Y-124407876D01*
X77825600Y-124407876D02*
X77968457Y-124693591D01*
X76682742Y-126550734D02*
X76825600Y-126265019D01*
X76825600Y-126265019D02*
X77111314Y-126122162D01*
X77111314Y-126122162D02*
X79682742Y-126122162D01*
X76825600Y-129836448D02*
X76682742Y-130265020D01*
X76682742Y-130265020D02*
X76682742Y-130979305D01*
X76682742Y-130979305D02*
X76825600Y-131265020D01*
X76825600Y-131265020D02*
X76968457Y-131407877D01*
X76968457Y-131407877D02*
X77254171Y-131550734D01*
X77254171Y-131550734D02*
X77539885Y-131550734D01*
X77539885Y-131550734D02*
X77825600Y-131407877D01*
X77825600Y-131407877D02*
X77968457Y-131265020D01*
X77968457Y-131265020D02*
X78111314Y-130979305D01*
X78111314Y-130979305D02*
X78254171Y-130407877D01*
X78254171Y-130407877D02*
X78397028Y-130122162D01*
X78397028Y-130122162D02*
X78539885Y-129979305D01*
X78539885Y-129979305D02*
X78825600Y-129836448D01*
X78825600Y-129836448D02*
X79111314Y-129836448D01*
X79111314Y-129836448D02*
X79397028Y-129979305D01*
X79397028Y-129979305D02*
X79539885Y-130122162D01*
X79539885Y-130122162D02*
X79682742Y-130407877D01*
X79682742Y-130407877D02*
X79682742Y-131122162D01*
X79682742Y-131122162D02*
X79539885Y-131550734D01*
X76682742Y-134122163D02*
X78254171Y-134122163D01*
X78254171Y-134122163D02*
X78539885Y-133979305D01*
X78539885Y-133979305D02*
X78682742Y-133693591D01*
X78682742Y-133693591D02*
X78682742Y-133122163D01*
X78682742Y-133122163D02*
X78539885Y-132836448D01*
X76825600Y-134122163D02*
X76682742Y-133836448D01*
X76682742Y-133836448D02*
X76682742Y-133122163D01*
X76682742Y-133122163D02*
X76825600Y-132836448D01*
X76825600Y-132836448D02*
X77111314Y-132693591D01*
X77111314Y-132693591D02*
X77397028Y-132693591D01*
X77397028Y-132693591D02*
X77682742Y-132836448D01*
X77682742Y-132836448D02*
X77825600Y-133122163D01*
X77825600Y-133122163D02*
X77825600Y-133836448D01*
X77825600Y-133836448D02*
X77968457Y-134122163D01*
X76825600Y-136836449D02*
X76682742Y-136550734D01*
X76682742Y-136550734D02*
X76682742Y-135979306D01*
X76682742Y-135979306D02*
X76825600Y-135693591D01*
X76825600Y-135693591D02*
X76968457Y-135550734D01*
X76968457Y-135550734D02*
X77254171Y-135407877D01*
X77254171Y-135407877D02*
X78111314Y-135407877D01*
X78111314Y-135407877D02*
X78397028Y-135550734D01*
X78397028Y-135550734D02*
X78539885Y-135693591D01*
X78539885Y-135693591D02*
X78682742Y-135979306D01*
X78682742Y-135979306D02*
X78682742Y-136550734D01*
X78682742Y-136550734D02*
X78539885Y-136836449D01*
X76682742Y-138122163D02*
X79682742Y-138122163D01*
X76682742Y-139407878D02*
X78254171Y-139407878D01*
X78254171Y-139407878D02*
X78539885Y-139265020D01*
X78539885Y-139265020D02*
X78682742Y-138979306D01*
X78682742Y-138979306D02*
X78682742Y-138550735D01*
X78682742Y-138550735D02*
X78539885Y-138265020D01*
X78539885Y-138265020D02*
X78397028Y-138122163D01*
X76682742Y-142122164D02*
X79682742Y-142122164D01*
X76825600Y-142122164D02*
X76682742Y-141836449D01*
X76682742Y-141836449D02*
X76682742Y-141265021D01*
X76682742Y-141265021D02*
X76825600Y-140979306D01*
X76825600Y-140979306D02*
X76968457Y-140836449D01*
X76968457Y-140836449D02*
X77254171Y-140693592D01*
X77254171Y-140693592D02*
X78111314Y-140693592D01*
X78111314Y-140693592D02*
X78397028Y-140836449D01*
X78397028Y-140836449D02*
X78539885Y-140979306D01*
X78539885Y-140979306D02*
X78682742Y-141265021D01*
X78682742Y-141265021D02*
X78682742Y-141836449D01*
X78682742Y-141836449D02*
X78539885Y-142122164D01*
X76825600Y-144693592D02*
X76682742Y-144407878D01*
X76682742Y-144407878D02*
X76682742Y-143836450D01*
X76682742Y-143836450D02*
X76825600Y-143550735D01*
X76825600Y-143550735D02*
X77111314Y-143407878D01*
X77111314Y-143407878D02*
X78254171Y-143407878D01*
X78254171Y-143407878D02*
X78539885Y-143550735D01*
X78539885Y-143550735D02*
X78682742Y-143836450D01*
X78682742Y-143836450D02*
X78682742Y-144407878D01*
X78682742Y-144407878D02*
X78539885Y-144693592D01*
X78539885Y-144693592D02*
X78254171Y-144836450D01*
X78254171Y-144836450D02*
X77968457Y-144836450D01*
X77968457Y-144836450D02*
X77682742Y-143407878D01*
X78682742Y-145836450D02*
X76682742Y-146550736D01*
X76682742Y-146550736D02*
X78682742Y-147265021D01*
X76682742Y-149693593D02*
X78254171Y-149693593D01*
X78254171Y-149693593D02*
X78539885Y-149550735D01*
X78539885Y-149550735D02*
X78682742Y-149265021D01*
X78682742Y-149265021D02*
X78682742Y-148693593D01*
X78682742Y-148693593D02*
X78539885Y-148407878D01*
X76825600Y-149693593D02*
X76682742Y-149407878D01*
X76682742Y-149407878D02*
X76682742Y-148693593D01*
X76682742Y-148693593D02*
X76825600Y-148407878D01*
X76825600Y-148407878D02*
X77111314Y-148265021D01*
X77111314Y-148265021D02*
X77397028Y-148265021D01*
X77397028Y-148265021D02*
X77682742Y-148407878D01*
X77682742Y-148407878D02*
X77825600Y-148693593D01*
X77825600Y-148693593D02*
X77825600Y-149407878D01*
X77825600Y-149407878D02*
X77968457Y-149693593D01*
X76682742Y-153407878D02*
X79682742Y-153407878D01*
X79682742Y-153407878D02*
X79682742Y-154550735D01*
X79682742Y-154550735D02*
X79539885Y-154836450D01*
X79539885Y-154836450D02*
X79397028Y-154979307D01*
X79397028Y-154979307D02*
X79111314Y-155122164D01*
X79111314Y-155122164D02*
X78682742Y-155122164D01*
X78682742Y-155122164D02*
X78397028Y-154979307D01*
X78397028Y-154979307D02*
X78254171Y-154836450D01*
X78254171Y-154836450D02*
X78111314Y-154550735D01*
X78111314Y-154550735D02*
X78111314Y-153407878D01*
X76682742Y-156407878D02*
X78682742Y-156407878D01*
X78111314Y-156407878D02*
X78397028Y-156550735D01*
X78397028Y-156550735D02*
X78539885Y-156693593D01*
X78539885Y-156693593D02*
X78682742Y-156979307D01*
X78682742Y-156979307D02*
X78682742Y-157265021D01*
X76682742Y-158693593D02*
X76825600Y-158407878D01*
X76825600Y-158407878D02*
X76968457Y-158265021D01*
X76968457Y-158265021D02*
X77254171Y-158122164D01*
X77254171Y-158122164D02*
X78111314Y-158122164D01*
X78111314Y-158122164D02*
X78397028Y-158265021D01*
X78397028Y-158265021D02*
X78539885Y-158407878D01*
X78539885Y-158407878D02*
X78682742Y-158693593D01*
X78682742Y-158693593D02*
X78682742Y-159122164D01*
X78682742Y-159122164D02*
X78539885Y-159407878D01*
X78539885Y-159407878D02*
X78397028Y-159550736D01*
X78397028Y-159550736D02*
X78111314Y-159693593D01*
X78111314Y-159693593D02*
X77254171Y-159693593D01*
X77254171Y-159693593D02*
X76968457Y-159550736D01*
X76968457Y-159550736D02*
X76825600Y-159407878D01*
X76825600Y-159407878D02*
X76682742Y-159122164D01*
X76682742Y-159122164D02*
X76682742Y-158693593D01*
X76682742Y-162265022D02*
X79682742Y-162265022D01*
X76825600Y-162265022D02*
X76682742Y-161979307D01*
X76682742Y-161979307D02*
X76682742Y-161407879D01*
X76682742Y-161407879D02*
X76825600Y-161122164D01*
X76825600Y-161122164D02*
X76968457Y-160979307D01*
X76968457Y-160979307D02*
X77254171Y-160836450D01*
X77254171Y-160836450D02*
X78111314Y-160836450D01*
X78111314Y-160836450D02*
X78397028Y-160979307D01*
X78397028Y-160979307D02*
X78539885Y-161122164D01*
X78539885Y-161122164D02*
X78682742Y-161407879D01*
X78682742Y-161407879D02*
X78682742Y-161979307D01*
X78682742Y-161979307D02*
X78539885Y-162265022D01*
X78682742Y-164979308D02*
X76682742Y-164979308D01*
X78682742Y-163693593D02*
X77111314Y-163693593D01*
X77111314Y-163693593D02*
X76825600Y-163836450D01*
X76825600Y-163836450D02*
X76682742Y-164122165D01*
X76682742Y-164122165D02*
X76682742Y-164550736D01*
X76682742Y-164550736D02*
X76825600Y-164836450D01*
X76825600Y-164836450D02*
X76968457Y-164979308D01*
X76825600Y-167693594D02*
X76682742Y-167407879D01*
X76682742Y-167407879D02*
X76682742Y-166836451D01*
X76682742Y-166836451D02*
X76825600Y-166550736D01*
X76825600Y-166550736D02*
X76968457Y-166407879D01*
X76968457Y-166407879D02*
X77254171Y-166265022D01*
X77254171Y-166265022D02*
X78111314Y-166265022D01*
X78111314Y-166265022D02*
X78397028Y-166407879D01*
X78397028Y-166407879D02*
X78539885Y-166550736D01*
X78539885Y-166550736D02*
X78682742Y-166836451D01*
X78682742Y-166836451D02*
X78682742Y-167407879D01*
X78682742Y-167407879D02*
X78539885Y-167693594D01*
X78682742Y-168550737D02*
X78682742Y-169693594D01*
X79682742Y-168979308D02*
X77111314Y-168979308D01*
X77111314Y-168979308D02*
X76825600Y-169122165D01*
X76825600Y-169122165D02*
X76682742Y-169407880D01*
X76682742Y-169407880D02*
X76682742Y-169693594D01*
X76682742Y-170693594D02*
X78682742Y-170693594D01*
X79682742Y-170693594D02*
X79539885Y-170550737D01*
X79539885Y-170550737D02*
X79397028Y-170693594D01*
X79397028Y-170693594D02*
X79539885Y-170836451D01*
X79539885Y-170836451D02*
X79682742Y-170693594D01*
X79682742Y-170693594D02*
X79397028Y-170693594D01*
X76682742Y-172550737D02*
X76825600Y-172265022D01*
X76825600Y-172265022D02*
X76968457Y-172122165D01*
X76968457Y-172122165D02*
X77254171Y-171979308D01*
X77254171Y-171979308D02*
X78111314Y-171979308D01*
X78111314Y-171979308D02*
X78397028Y-172122165D01*
X78397028Y-172122165D02*
X78539885Y-172265022D01*
X78539885Y-172265022D02*
X78682742Y-172550737D01*
X78682742Y-172550737D02*
X78682742Y-172979308D01*
X78682742Y-172979308D02*
X78539885Y-173265022D01*
X78539885Y-173265022D02*
X78397028Y-173407880D01*
X78397028Y-173407880D02*
X78111314Y-173550737D01*
X78111314Y-173550737D02*
X77254171Y-173550737D01*
X77254171Y-173550737D02*
X76968457Y-173407880D01*
X76968457Y-173407880D02*
X76825600Y-173265022D01*
X76825600Y-173265022D02*
X76682742Y-172979308D01*
X76682742Y-172979308D02*
X76682742Y-172550737D01*
X78682742Y-174836451D02*
X76682742Y-174836451D01*
X78397028Y-174836451D02*
X78539885Y-174979308D01*
X78539885Y-174979308D02*
X78682742Y-175265023D01*
X78682742Y-175265023D02*
X78682742Y-175693594D01*
X78682742Y-175693594D02*
X78539885Y-175979308D01*
X78539885Y-175979308D02*
X78254171Y-176122166D01*
X78254171Y-176122166D02*
X76682742Y-176122166D01*
D13*
X149874819Y-69046341D02*
X150684342Y-69046341D01*
X150684342Y-69046341D02*
X150779580Y-68998722D01*
X150779580Y-68998722D02*
X150827200Y-68951103D01*
X150827200Y-68951103D02*
X150874819Y-68855865D01*
X150874819Y-68855865D02*
X150874819Y-68665389D01*
X150874819Y-68665389D02*
X150827200Y-68570151D01*
X150827200Y-68570151D02*
X150779580Y-68522532D01*
X150779580Y-68522532D02*
X150684342Y-68474913D01*
X150684342Y-68474913D02*
X149874819Y-68474913D01*
X149874819Y-68093960D02*
X149874819Y-67474913D01*
X149874819Y-67474913D02*
X150255771Y-67808246D01*
X150255771Y-67808246D02*
X150255771Y-67665389D01*
X150255771Y-67665389D02*
X150303390Y-67570151D01*
X150303390Y-67570151D02*
X150351009Y-67522532D01*
X150351009Y-67522532D02*
X150446247Y-67474913D01*
X150446247Y-67474913D02*
X150684342Y-67474913D01*
X150684342Y-67474913D02*
X150779580Y-67522532D01*
X150779580Y-67522532D02*
X150827200Y-67570151D01*
X150827200Y-67570151D02*
X150874819Y-67665389D01*
X150874819Y-67665389D02*
X150874819Y-67951103D01*
X150874819Y-67951103D02*
X150827200Y-68046341D01*
X150827200Y-68046341D02*
X150779580Y-68093960D01*
X172634819Y-59411341D02*
X173444342Y-59411341D01*
X173444342Y-59411341D02*
X173539580Y-59363722D01*
X173539580Y-59363722D02*
X173587200Y-59316103D01*
X173587200Y-59316103D02*
X173634819Y-59220865D01*
X173634819Y-59220865D02*
X173634819Y-59030389D01*
X173634819Y-59030389D02*
X173587200Y-58935151D01*
X173587200Y-58935151D02*
X173539580Y-58887532D01*
X173539580Y-58887532D02*
X173444342Y-58839913D01*
X173444342Y-58839913D02*
X172634819Y-58839913D01*
X172730057Y-58411341D02*
X172682438Y-58363722D01*
X172682438Y-58363722D02*
X172634819Y-58268484D01*
X172634819Y-58268484D02*
X172634819Y-58030389D01*
X172634819Y-58030389D02*
X172682438Y-57935151D01*
X172682438Y-57935151D02*
X172730057Y-57887532D01*
X172730057Y-57887532D02*
X172825295Y-57839913D01*
X172825295Y-57839913D02*
X172920533Y-57839913D01*
X172920533Y-57839913D02*
X173063390Y-57887532D01*
X173063390Y-57887532D02*
X173634819Y-58458960D01*
X173634819Y-58458960D02*
X173634819Y-57839913D01*
X170217438Y-72760581D02*
X170217438Y-71617724D01*
X172217438Y-72189153D02*
X170217438Y-72189153D01*
X171169819Y-70284390D02*
X171169819Y-70951057D01*
X172217438Y-70951057D02*
X170217438Y-70951057D01*
X170217438Y-70951057D02*
X170217438Y-69998676D01*
X170217438Y-69522485D02*
X170217438Y-68379628D01*
X172217438Y-68951057D02*
X170217438Y-68951057D01*
X170217438Y-66379627D02*
X170217438Y-65141532D01*
X170217438Y-65141532D02*
X170979342Y-65808199D01*
X170979342Y-65808199D02*
X170979342Y-65522484D01*
X170979342Y-65522484D02*
X171074580Y-65332008D01*
X171074580Y-65332008D02*
X171169819Y-65236770D01*
X171169819Y-65236770D02*
X171360295Y-65141532D01*
X171360295Y-65141532D02*
X171836485Y-65141532D01*
X171836485Y-65141532D02*
X172026961Y-65236770D01*
X172026961Y-65236770D02*
X172122200Y-65332008D01*
X172122200Y-65332008D02*
X172217438Y-65522484D01*
X172217438Y-65522484D02*
X172217438Y-66093913D01*
X172217438Y-66093913D02*
X172122200Y-66284389D01*
X172122200Y-66284389D02*
X172026961Y-66379627D01*
X170407914Y-64379627D02*
X170312676Y-64284389D01*
X170312676Y-64284389D02*
X170217438Y-64093913D01*
X170217438Y-64093913D02*
X170217438Y-63617722D01*
X170217438Y-63617722D02*
X170312676Y-63427246D01*
X170312676Y-63427246D02*
X170407914Y-63332008D01*
X170407914Y-63332008D02*
X170598390Y-63236770D01*
X170598390Y-63236770D02*
X170788866Y-63236770D01*
X170788866Y-63236770D02*
X171074580Y-63332008D01*
X171074580Y-63332008D02*
X172217438Y-64474865D01*
X172217438Y-64474865D02*
X172217438Y-63236770D01*
X170217438Y-61998675D02*
X170217438Y-61808198D01*
X170217438Y-61808198D02*
X170312676Y-61617722D01*
X170312676Y-61617722D02*
X170407914Y-61522484D01*
X170407914Y-61522484D02*
X170598390Y-61427246D01*
X170598390Y-61427246D02*
X170979342Y-61332008D01*
X170979342Y-61332008D02*
X171455533Y-61332008D01*
X171455533Y-61332008D02*
X171836485Y-61427246D01*
X171836485Y-61427246D02*
X172026961Y-61522484D01*
X172026961Y-61522484D02*
X172122200Y-61617722D01*
X172122200Y-61617722D02*
X172217438Y-61808198D01*
X172217438Y-61808198D02*
X172217438Y-61998675D01*
X172217438Y-61998675D02*
X172122200Y-62189151D01*
X172122200Y-62189151D02*
X172026961Y-62284389D01*
X172026961Y-62284389D02*
X171836485Y-62379627D01*
X171836485Y-62379627D02*
X171455533Y-62474865D01*
X171455533Y-62474865D02*
X170979342Y-62474865D01*
X170979342Y-62474865D02*
X170598390Y-62379627D01*
X170598390Y-62379627D02*
X170407914Y-62284389D01*
X170407914Y-62284389D02*
X170312676Y-62189151D01*
X170312676Y-62189151D02*
X170217438Y-61998675D01*
X172217438Y-60665341D02*
X170884104Y-59617722D01*
X170884104Y-60665341D02*
X172217438Y-59617722D01*
X170407914Y-58951055D02*
X170312676Y-58855817D01*
X170312676Y-58855817D02*
X170217438Y-58665341D01*
X170217438Y-58665341D02*
X170217438Y-58189150D01*
X170217438Y-58189150D02*
X170312676Y-57998674D01*
X170312676Y-57998674D02*
X170407914Y-57903436D01*
X170407914Y-57903436D02*
X170598390Y-57808198D01*
X170598390Y-57808198D02*
X170788866Y-57808198D01*
X170788866Y-57808198D02*
X171074580Y-57903436D01*
X171074580Y-57903436D02*
X172217438Y-59046293D01*
X172217438Y-59046293D02*
X172217438Y-57808198D01*
X170884104Y-56093912D02*
X172217438Y-56093912D01*
X170122200Y-56570103D02*
X171550771Y-57046293D01*
X171550771Y-57046293D02*
X171550771Y-55808198D01*
X170217438Y-54665341D02*
X170217438Y-54474864D01*
X170217438Y-54474864D02*
X170312676Y-54284388D01*
X170312676Y-54284388D02*
X170407914Y-54189150D01*
X170407914Y-54189150D02*
X170598390Y-54093912D01*
X170598390Y-54093912D02*
X170979342Y-53998674D01*
X170979342Y-53998674D02*
X171455533Y-53998674D01*
X171455533Y-53998674D02*
X171836485Y-54093912D01*
X171836485Y-54093912D02*
X172026961Y-54189150D01*
X172026961Y-54189150D02*
X172122200Y-54284388D01*
X172122200Y-54284388D02*
X172217438Y-54474864D01*
X172217438Y-54474864D02*
X172217438Y-54665341D01*
X172217438Y-54665341D02*
X172122200Y-54855817D01*
X172122200Y-54855817D02*
X172026961Y-54951055D01*
X172026961Y-54951055D02*
X171836485Y-55046293D01*
X171836485Y-55046293D02*
X171455533Y-55141531D01*
X171455533Y-55141531D02*
X170979342Y-55141531D01*
X170979342Y-55141531D02*
X170598390Y-55046293D01*
X170598390Y-55046293D02*
X170407914Y-54951055D01*
X170407914Y-54951055D02*
X170312676Y-54855817D01*
X170312676Y-54855817D02*
X170217438Y-54665341D01*
X172122200Y-53046293D02*
X172217438Y-53046293D01*
X172217438Y-53046293D02*
X172407914Y-53141531D01*
X172407914Y-53141531D02*
X172503152Y-53236769D01*
X170407914Y-50760578D02*
X170312676Y-50665340D01*
X170312676Y-50665340D02*
X170217438Y-50474864D01*
X170217438Y-50474864D02*
X170217438Y-49998673D01*
X170217438Y-49998673D02*
X170312676Y-49808197D01*
X170312676Y-49808197D02*
X170407914Y-49712959D01*
X170407914Y-49712959D02*
X170598390Y-49617721D01*
X170598390Y-49617721D02*
X170788866Y-49617721D01*
X170788866Y-49617721D02*
X171074580Y-49712959D01*
X171074580Y-49712959D02*
X172217438Y-50855816D01*
X172217438Y-50855816D02*
X172217438Y-49617721D01*
X172026961Y-48760578D02*
X172122200Y-48665340D01*
X172122200Y-48665340D02*
X172217438Y-48760578D01*
X172217438Y-48760578D02*
X172122200Y-48855816D01*
X172122200Y-48855816D02*
X172026961Y-48760578D01*
X172026961Y-48760578D02*
X172217438Y-48760578D01*
X171074580Y-47522483D02*
X170979342Y-47712959D01*
X170979342Y-47712959D02*
X170884104Y-47808197D01*
X170884104Y-47808197D02*
X170693628Y-47903435D01*
X170693628Y-47903435D02*
X170598390Y-47903435D01*
X170598390Y-47903435D02*
X170407914Y-47808197D01*
X170407914Y-47808197D02*
X170312676Y-47712959D01*
X170312676Y-47712959D02*
X170217438Y-47522483D01*
X170217438Y-47522483D02*
X170217438Y-47141530D01*
X170217438Y-47141530D02*
X170312676Y-46951054D01*
X170312676Y-46951054D02*
X170407914Y-46855816D01*
X170407914Y-46855816D02*
X170598390Y-46760578D01*
X170598390Y-46760578D02*
X170693628Y-46760578D01*
X170693628Y-46760578D02*
X170884104Y-46855816D01*
X170884104Y-46855816D02*
X170979342Y-46951054D01*
X170979342Y-46951054D02*
X171074580Y-47141530D01*
X171074580Y-47141530D02*
X171074580Y-47522483D01*
X171074580Y-47522483D02*
X171169819Y-47712959D01*
X171169819Y-47712959D02*
X171265057Y-47808197D01*
X171265057Y-47808197D02*
X171455533Y-47903435D01*
X171455533Y-47903435D02*
X171836485Y-47903435D01*
X171836485Y-47903435D02*
X172026961Y-47808197D01*
X172026961Y-47808197D02*
X172122200Y-47712959D01*
X172122200Y-47712959D02*
X172217438Y-47522483D01*
X172217438Y-47522483D02*
X172217438Y-47141530D01*
X172217438Y-47141530D02*
X172122200Y-46951054D01*
X172122200Y-46951054D02*
X172026961Y-46855816D01*
X172026961Y-46855816D02*
X171836485Y-46760578D01*
X171836485Y-46760578D02*
X171455533Y-46760578D01*
X171455533Y-46760578D02*
X171265057Y-46855816D01*
X171265057Y-46855816D02*
X171169819Y-46951054D01*
X171169819Y-46951054D02*
X171074580Y-47141530D01*
X170217438Y-45998673D02*
X170598390Y-45998673D01*
X170217438Y-45236768D02*
X170598390Y-45236768D01*
X83525714Y-25426756D02*
X83525714Y-24426756D01*
X83525714Y-24426756D02*
X83763809Y-24426756D01*
X83763809Y-24426756D02*
X83906666Y-24474375D01*
X83906666Y-24474375D02*
X84001904Y-24569613D01*
X84001904Y-24569613D02*
X84049523Y-24664851D01*
X84049523Y-24664851D02*
X84097142Y-24855327D01*
X84097142Y-24855327D02*
X84097142Y-24998184D01*
X84097142Y-24998184D02*
X84049523Y-25188660D01*
X84049523Y-25188660D02*
X84001904Y-25283898D01*
X84001904Y-25283898D02*
X83906666Y-25379137D01*
X83906666Y-25379137D02*
X83763809Y-25426756D01*
X83763809Y-25426756D02*
X83525714Y-25426756D01*
X84478095Y-25379137D02*
X84620952Y-25426756D01*
X84620952Y-25426756D02*
X84859047Y-25426756D01*
X84859047Y-25426756D02*
X84954285Y-25379137D01*
X84954285Y-25379137D02*
X85001904Y-25331517D01*
X85001904Y-25331517D02*
X85049523Y-25236279D01*
X85049523Y-25236279D02*
X85049523Y-25141041D01*
X85049523Y-25141041D02*
X85001904Y-25045803D01*
X85001904Y-25045803D02*
X84954285Y-24998184D01*
X84954285Y-24998184D02*
X84859047Y-24950565D01*
X84859047Y-24950565D02*
X84668571Y-24902946D01*
X84668571Y-24902946D02*
X84573333Y-24855327D01*
X84573333Y-24855327D02*
X84525714Y-24807708D01*
X84525714Y-24807708D02*
X84478095Y-24712470D01*
X84478095Y-24712470D02*
X84478095Y-24617232D01*
X84478095Y-24617232D02*
X84525714Y-24521994D01*
X84525714Y-24521994D02*
X84573333Y-24474375D01*
X84573333Y-24474375D02*
X84668571Y-24426756D01*
X84668571Y-24426756D02*
X84906666Y-24426756D01*
X84906666Y-24426756D02*
X85049523Y-24474375D01*
X86001904Y-25426756D02*
X85430476Y-25426756D01*
X85716190Y-25426756D02*
X85716190Y-24426756D01*
X85716190Y-24426756D02*
X85620952Y-24569613D01*
X85620952Y-24569613D02*
X85525714Y-24664851D01*
X85525714Y-24664851D02*
X85430476Y-24712470D01*
X142113095Y-175621756D02*
X142113095Y-176431279D01*
X142113095Y-176431279D02*
X142160714Y-176526517D01*
X142160714Y-176526517D02*
X142208333Y-176574137D01*
X142208333Y-176574137D02*
X142303571Y-176621756D01*
X142303571Y-176621756D02*
X142494047Y-176621756D01*
X142494047Y-176621756D02*
X142589285Y-176574137D01*
X142589285Y-176574137D02*
X142636904Y-176526517D01*
X142636904Y-176526517D02*
X142684523Y-176431279D01*
X142684523Y-176431279D02*
X142684523Y-175621756D01*
X143684523Y-176621756D02*
X143113095Y-176621756D01*
X143398809Y-176621756D02*
X143398809Y-175621756D01*
X143398809Y-175621756D02*
X143303571Y-175764613D01*
X143303571Y-175764613D02*
X143208333Y-175859851D01*
X143208333Y-175859851D02*
X143113095Y-175907470D01*
X148694285Y-162562946D02*
X148837142Y-162610565D01*
X148837142Y-162610565D02*
X148884761Y-162658184D01*
X148884761Y-162658184D02*
X148932380Y-162753422D01*
X148932380Y-162753422D02*
X148932380Y-162896279D01*
X148932380Y-162896279D02*
X148884761Y-162991517D01*
X148884761Y-162991517D02*
X148837142Y-163039137D01*
X148837142Y-163039137D02*
X148741904Y-163086756D01*
X148741904Y-163086756D02*
X148360952Y-163086756D01*
X148360952Y-163086756D02*
X148360952Y-162086756D01*
X148360952Y-162086756D02*
X148694285Y-162086756D01*
X148694285Y-162086756D02*
X148789523Y-162134375D01*
X148789523Y-162134375D02*
X148837142Y-162181994D01*
X148837142Y-162181994D02*
X148884761Y-162277232D01*
X148884761Y-162277232D02*
X148884761Y-162372470D01*
X148884761Y-162372470D02*
X148837142Y-162467708D01*
X148837142Y-162467708D02*
X148789523Y-162515327D01*
X148789523Y-162515327D02*
X148694285Y-162562946D01*
X148694285Y-162562946D02*
X148360952Y-162562946D01*
X149218095Y-162086756D02*
X149789523Y-162086756D01*
X149503809Y-163086756D02*
X149503809Y-162086756D01*
X150075238Y-162181994D02*
X150122857Y-162134375D01*
X150122857Y-162134375D02*
X150218095Y-162086756D01*
X150218095Y-162086756D02*
X150456190Y-162086756D01*
X150456190Y-162086756D02*
X150551428Y-162134375D01*
X150551428Y-162134375D02*
X150599047Y-162181994D01*
X150599047Y-162181994D02*
X150646666Y-162277232D01*
X150646666Y-162277232D02*
X150646666Y-162372470D01*
X150646666Y-162372470D02*
X150599047Y-162515327D01*
X150599047Y-162515327D02*
X150027619Y-163086756D01*
X150027619Y-163086756D02*
X150646666Y-163086756D01*
X91106667Y-136288470D02*
X92173334Y-136288470D01*
X91106667Y-123518470D02*
X92173334Y-123518470D01*
X91640000Y-124051803D02*
X91640000Y-122985137D01*
X159530608Y-87661423D02*
X159051703Y-87661423D01*
X159051703Y-87661423D02*
X159051703Y-86655722D01*
X159817952Y-87613533D02*
X159961623Y-87661423D01*
X159961623Y-87661423D02*
X160201076Y-87661423D01*
X160201076Y-87661423D02*
X160296857Y-87613533D01*
X160296857Y-87613533D02*
X160344747Y-87565642D01*
X160344747Y-87565642D02*
X160392638Y-87469861D01*
X160392638Y-87469861D02*
X160392638Y-87374080D01*
X160392638Y-87374080D02*
X160344747Y-87278299D01*
X160344747Y-87278299D02*
X160296857Y-87230408D01*
X160296857Y-87230408D02*
X160201076Y-87182518D01*
X160201076Y-87182518D02*
X160009514Y-87134627D01*
X160009514Y-87134627D02*
X159913733Y-87086737D01*
X159913733Y-87086737D02*
X159865842Y-87038846D01*
X159865842Y-87038846D02*
X159817952Y-86943065D01*
X159817952Y-86943065D02*
X159817952Y-86847284D01*
X159817952Y-86847284D02*
X159865842Y-86751503D01*
X159865842Y-86751503D02*
X159913733Y-86703613D01*
X159913733Y-86703613D02*
X160009514Y-86655722D01*
X160009514Y-86655722D02*
X160248966Y-86655722D01*
X160248966Y-86655722D02*
X160392638Y-86703613D01*
X161350448Y-87661423D02*
X160775762Y-87661423D01*
X161063105Y-87661423D02*
X161063105Y-86655722D01*
X161063105Y-86655722D02*
X160967324Y-86799394D01*
X160967324Y-86799394D02*
X160871543Y-86895175D01*
X160871543Y-86895175D02*
X160775762Y-86943065D01*
X151761955Y-95427194D02*
X152525486Y-95427194D01*
X152143720Y-95808959D02*
X152143720Y-95045429D01*
X166011150Y-95426759D02*
X166774171Y-95426759D01*
X81117519Y-87811258D02*
X80802558Y-87361314D01*
X80577586Y-87811258D02*
X80577586Y-86866376D01*
X80577586Y-86866376D02*
X80937541Y-86866376D01*
X80937541Y-86866376D02*
X81027530Y-86911370D01*
X81027530Y-86911370D02*
X81072525Y-86956365D01*
X81072525Y-86956365D02*
X81117519Y-87046353D01*
X81117519Y-87046353D02*
X81117519Y-87181337D01*
X81117519Y-87181337D02*
X81072525Y-87271325D01*
X81072525Y-87271325D02*
X81027530Y-87316320D01*
X81027530Y-87316320D02*
X80937541Y-87361314D01*
X80937541Y-87361314D02*
X80577586Y-87361314D01*
X82017407Y-87811258D02*
X81477474Y-87811258D01*
X81747440Y-87811258D02*
X81747440Y-86866376D01*
X81747440Y-86866376D02*
X81657452Y-87001359D01*
X81657452Y-87001359D02*
X81567463Y-87091348D01*
X81567463Y-87091348D02*
X81477474Y-87136342D01*
D14*
%TO.C,S1*%
X114060000Y-95639437D02*
X135060000Y-95639437D01*
X114060000Y-110639437D02*
X114060000Y-95639437D01*
X135060000Y-95639437D02*
X135060000Y-110639437D01*
X135060000Y-110639437D02*
X114060000Y-110639437D01*
D15*
X113660000Y-103139437D02*
G75*
G02*
X113460000Y-103139437I-100000J0D01*
G01*
X113460000Y-103139437D02*
G75*
G02*
X113660000Y-103139437I100000J0D01*
G01*
D14*
%TO.C,U3*%
X97585000Y-65359437D02*
X97585000Y-70729437D01*
X97585000Y-65359437D02*
X148535000Y-65359437D01*
X97585000Y-65359437D02*
X148535000Y-65359437D01*
X97585000Y-70729437D02*
X97585000Y-88419437D01*
X97585000Y-88419437D02*
X97585000Y-93869437D01*
X97585000Y-93869437D02*
X97585000Y-65359437D01*
X148535000Y-65359437D02*
X148535000Y-76428437D01*
X148535000Y-65359437D02*
X148535000Y-93869437D01*
X148535000Y-76428437D02*
X148535000Y-83139437D01*
X148535000Y-83139437D02*
X148535000Y-93869437D01*
X148535000Y-93869437D02*
X97585000Y-93869437D01*
X148535000Y-93869437D02*
X97585000Y-93869437D01*
D15*
X138675000Y-64789437D02*
G75*
G02*
X138475000Y-64789437I-100000J0D01*
G01*
X138475000Y-64789437D02*
G75*
G02*
X138675000Y-64789437I100000J0D01*
G01*
D16*
%TO.C,U2*%
X80470000Y-33249437D02*
X80470000Y-84049437D01*
X80470000Y-84049437D02*
X169370000Y-84049437D01*
X88344000Y-84049437D02*
X88344000Y-33249437D01*
X156670000Y-84049437D02*
X156670000Y-33249437D01*
X163306000Y-76409437D02*
X163306000Y-40889437D01*
X163560000Y-40889437D02*
X167560000Y-40889437D01*
X163560000Y-73889437D02*
X167560000Y-73889437D01*
X167560000Y-40889437D02*
X167560000Y-76409437D01*
X167560000Y-76409437D02*
X163560000Y-76409437D01*
X169370000Y-33249437D02*
X80470000Y-33249437D01*
X169370000Y-84049437D02*
X169370000Y-33249437D01*
X86076051Y-36551437D02*
G75*
G02*
X82483949Y-36551437I-1796051J0D01*
G01*
X82483949Y-36551437D02*
G75*
G02*
X86076051Y-36551437I1796051J0D01*
G01*
X86076051Y-80493437D02*
G75*
G02*
X82483949Y-80493437I-1796051J0D01*
G01*
X82483949Y-80493437D02*
G75*
G02*
X86076051Y-80493437I1796051J0D01*
G01*
X162657051Y-36424437D02*
G75*
G02*
X159064949Y-36424437I-1796051J0D01*
G01*
X159064949Y-36424437D02*
G75*
G02*
X162657051Y-36424437I1796051J0D01*
G01*
X162657051Y-80874437D02*
G75*
G02*
X159064949Y-80874437I-1796051J0D01*
G01*
X159064949Y-80874437D02*
G75*
G02*
X162657051Y-80874437I1796051J0D01*
G01*
%TO.C,DS1*%
X82420000Y-26141937D02*
X82420000Y-62421937D01*
X82420000Y-62421937D02*
X162700000Y-62421937D01*
X82430000Y-26141937D02*
X83220000Y-26141937D01*
X85560000Y-31781937D02*
X158560000Y-31781937D01*
X85560000Y-56781937D02*
X85560000Y-31781937D01*
X89060000Y-25781937D02*
X92060000Y-25781937D01*
X90260280Y-51281257D02*
X90260280Y-37281937D01*
X90760000Y-36781937D02*
X154260000Y-36781937D01*
X154260660Y-51781937D02*
X90760000Y-51781937D01*
X154760000Y-37281937D02*
X154760000Y-51281937D01*
X158560000Y-31781937D02*
X158560000Y-56781937D01*
X158560000Y-56781937D02*
X85560000Y-56781937D01*
X162700000Y-26141937D02*
X83220000Y-26141937D01*
X162700000Y-62421937D02*
X162700000Y-26141937D01*
X90260280Y-37280777D02*
G75*
G02*
X90760660Y-36780397I500380J0D01*
G01*
X90760660Y-51781637D02*
G75*
G02*
X90260280Y-51281257I0J500380D01*
G01*
X154260000Y-36781937D02*
G75*
G02*
X154760000Y-37281937I0J-500000D01*
G01*
X154761040Y-51281257D02*
G75*
G02*
X154260660Y-51781577I-500340J20D01*
G01*
D14*
%TO.C,U1*%
X105800000Y-114281937D02*
X145800000Y-114281937D01*
X105800000Y-174281937D02*
X105800000Y-114281937D01*
X145800000Y-114281937D02*
X145800000Y-174281937D01*
X145800000Y-174281937D02*
X105800000Y-174281937D01*
D15*
X134331000Y-175089937D02*
G75*
G02*
X134131000Y-175089937I-100000J0D01*
G01*
X134131000Y-175089937D02*
G75*
G02*
X134331000Y-175089937I100000J0D01*
G01*
D14*
%TO.C,BT2*%
X96350000Y-112031937D02*
X96350000Y-161531937D01*
X96350000Y-161531937D02*
X154250000Y-161531937D01*
X154250000Y-112031937D02*
X96350000Y-112031937D01*
X154250000Y-161531937D02*
X154250000Y-112031937D01*
%TO.C,LS1*%
X165800000Y-94781937D02*
G75*
G02*
X153800000Y-94781937I-6000000J0D01*
G01*
X153800000Y-94781937D02*
G75*
G02*
X165800000Y-94781937I6000000J0D01*
G01*
%TO.C,R1*%
X80300000Y-90031937D02*
X85680000Y-90031937D01*
X80300000Y-91207937D02*
X80300000Y-90031937D01*
X80300000Y-93707937D02*
X80300000Y-93355937D01*
X80300000Y-96207937D02*
X80300000Y-95855937D01*
X80300000Y-98355937D02*
X80300000Y-99531937D01*
X85680000Y-99531937D02*
X80300000Y-99531937D01*
X87920000Y-90031937D02*
X91650000Y-90031937D01*
X91650000Y-90031937D02*
X91650000Y-99531937D01*
X91650000Y-99531937D02*
X87920000Y-99531937D01*
D15*
X77900000Y-92281937D02*
G75*
G02*
X77700000Y-92281937I-100000J0D01*
G01*
X77700000Y-92281937D02*
G75*
G02*
X77900000Y-92281937I100000J0D01*
G01*
%TD*%
M02*
